<?xml version="1.0" encoding="utf-8"?>
<!-- Generator: Adobe Illustrator 27.9.3, SVG Export Plug-In . SVG Version: 9.03 Build 53313)  -->
<svg version="1.1" id="Layer_1" xmlns="http://www.w3.org/2000/svg" xmlns:xlink="http://www.w3.org/1999/xlink" x="0px" y="0px"
	 viewBox="0 0 100 100" style="enable-background:new 0 0 100 100;" xml:space="preserve">
<style type="text/css">
	.st0{fill:#2EC920;}
</style>
<g>
	<path class="st0" d="M39.3,45.2c-8.8-8.2-6.9-19.4-0.8-25.1c6.4-5.9,16-6.1,22.6-0.3c5.8,5.1,9,16.6-0.4,25.4
		c2.2,3.7,4.5,7.4,6.5,11.2c1.1,2,2.1,2.8,4.6,2.4c5.4-0.7,9.6,1.7,12.3,6.3c4.4,7.6-0.1,17.5-8.8,19c-6.3,1.1-12-2-14.4-8.1
		c-0.7-1.7-0.7-1.7-2.4-1.7c-5.6,0-11.2,0-16.8,0c-1.6,0-1.7-0.1-2.3,1.6c-2.3,6-7.7,9.1-14,8.4c-4.8-0.6-9.5-5-10.6-9.8
		C13,68,16.8,61.5,23.1,59.3c2.2-0.8,4.5-0.8,6.7-0.3c0.8,0.2,1.3,0.2,1.8-0.6C34.2,54,36.7,49.6,39.3,45.2z M36.1,61.7
		c1.2,2.1,2.3,3.9,3.2,5.8c0.5,1,0.9,1.4,2,1.4c5.8,0,11.7,0,17.5,0c1,0,1.5-0.3,1.9-1.3c0.7-1.6,1.5-3.1,2.5-4.4
		c0.7-0.9,0.7-1.5,0.2-2.4c-2.3-3.8-4.5-7.7-6.7-11.6c-0.8-1.3-0.8-1.3-2.3-0.8c-2.9,0.9-5.8,0.8-8.8,0c-1.5-0.4-1.5-0.4-2.3,0.9
		c-1.4,2.4-2.8,4.8-4.2,7.3C38,58.3,37,60.1,36.1,61.7z M50,43.4c6.2,0,11.3-5,11.2-11.2C61.1,26.1,56.8,21,50,21
		c-6.7,0-11.1,5-11.2,11.2C38.6,38.3,43.8,43.4,50,43.4z M34.5,71.6c0-4.2-3.2-7.5-7.3-7.4c-4.5,0.1-7.4,3.7-7.4,7.4
		c0,3.8,2.6,7.3,7.3,7.5C31.6,79.1,34.7,75.2,34.5,71.6z M80.2,71.6c0.2-3.7-2.9-7.3-7.3-7.4c-4.1-0.1-7.3,3.3-7.4,7.4
		c-0.1,3.6,2.9,7.5,7.4,7.4C77.6,78.9,80.4,75.3,80.2,71.6z"/>
</g>
</svg>
