<?xml version="1.0" encoding="utf-8"?>
<!-- Generator: Adobe Illustrator 27.9.3, SVG Export Plug-In . SVG Version: 9.03 Build 53313)  -->
<svg version="1.1" id="Layer_1" xmlns="http://www.w3.org/2000/svg" xmlns:xlink="http://www.w3.org/1999/xlink" x="0px" y="0px"
	 viewBox="0 0 100 100" style="enable-background:new 0 0 100 100;" xml:space="preserve">
<style type="text/css">
	.st0{fill:#2EC920;}
</style>
<g>
	<path class="st0" d="M41.2,56.4c-3.8,0-7.3,0-10.8,0c-1.5,0-2.9,0-3.6-1.6c-0.7-1.5,0.1-2.7,1-3.8c9.9-12.4,19.7-24.8,29.6-37.1
		c0.2-0.2,0.3-0.4,0.5-0.6c0.9-1.2,2-1.8,3.5-1.1c1.5,0.7,1.7,2,1.4,3.4c-0.9,4.9-1.7,9.8-2.6,14.7c-0.8,4.3-1.5,8.6-2.3,13.2
		c2.4,0,4.6,0,6.8,0c1.8,0,3.6-0.1,5.4,0.1c2.3,0.2,3.3,2.3,2,4.2c-0.2,0.3-0.5,0.6-0.8,0.9C60.6,61.2,49.9,73.8,39.2,86.3
		c-0.2,0.2-0.3,0.4-0.5,0.6c-0.9,1.1-2,1.6-3.4,0.9c-1.4-0.7-1.7-2-1.4-3.4c1.4-5.3,2.8-10.6,4.2-16C39.1,64.5,40.1,60.6,41.2,56.4z
		"/>
</g>
</svg>
