<?xml version="1.0" encoding="utf-8"?>
<!-- Generator: Adobe Illustrator 27.9.4, SVG Export Plug-In . SVG Version: 9.03 Build 54784)  -->
<svg version="1.1" id="Layer_1" xmlns="http://www.w3.org/2000/svg" xmlns:xlink="http://www.w3.org/1999/xlink" x="0px" y="0px"
	 viewBox="0 0 100 100" style="enable-background:new 0 0 100 100;" xml:space="preserve">
<style type="text/css">
	.st0{fill:#2EC920;}
</style>
<g>
	<path class="st0" d="M46.3,31.3c-6.4,1.5-11.2,4.9-14,10.7c-3.3,6.8-3,13.6,1.4,20c1.7,2.4,3.5,4.8,4.7,7.5
		c0.4,0.8,0.4,1.8,1.4,2.6c6.7,0,13.5,0,20.6,0c0.3-0.4,0.5-0.7,0.6-1c1.4-3.1,3.3-5.9,5.2-8.7c3.5-5.1,4.8-10.7,3.1-16.8
		C66.3,35,55.2,29.3,46.3,31.3z M55,59.1c-0.8,1-1.9,1.6-3.2,1.9v2.7h-3.5v-2.6c-2.2-0.4-3.9-1.6-5.1-3.5l2.6-2.6
		c0.4,0.7,1,1.3,1.7,1.8c0.7,0.5,1.5,0.7,2.2,0.7c0.6,0,1.1-0.1,1.4-0.4c0.4-0.3,0.6-0.7,0.6-1.1c0-0.7-0.5-1.2-1.5-1.7
		c-0.2-0.1-0.4-0.2-0.8-0.4l-1-0.5c-0.9-0.5-1.6-0.9-2-1.1c-1.7-1.1-2.5-2.6-2.5-4.3c0-1.3,0.4-2.4,1.1-3.3c0.8-0.9,1.8-1.5,3.1-1.8
		v-2.4h3.5v2.4c1.4,0.3,2.8,1,4,2.2l-2.1,2.9c-1.2-1-2.4-1.6-3.6-1.6c-0.6,0-1,0.1-1.4,0.4c-0.3,0.3-0.5,0.6-0.5,1
		c0,0.4,0.2,0.7,0.6,1l0.6,0.4c0,0,0.1,0.1,0.3,0.2c0.2,0.1,0.3,0.2,0.3,0.2l1.6,0.8c0.8,0.4,1.5,0.7,2,1.1c1.6,1,2.4,2.4,2.4,4.1
		C56.2,57,55.8,58.1,55,59.1z"/>
	<path class="st0" d="M60.5,78.1c-3.3-0.6-19.1-0.4-21,0.2c0.1,2.1-0.4,4.3,0.3,6.1c1.1,0.9,2.1,0.4,3.1,0.9c1,3.3,3.4,5.6,6.9,5.7
		c3.8,0.2,6.1-2.4,7.3-5.7c1-0.5,2.1,0,3.1-0.9C60.8,82.5,60.3,80.4,60.5,78.1z"/>
	<path class="st0" d="M45.6,20c0,3.7,0.8,4.7,4.4,5.8c0.7-0.2,1.4-0.3,1.8-0.6c1.3-0.8,2.5-1.7,2.5-3.5c0-2.9,0-5.8,0-8.6
		c0-1.1-0.3-2.1-1.1-2.7c-1.5-1-3-1.9-4.9-0.9c-1.8,0.9-2.7,2.1-2.7,4.2C45.6,15.8,45.6,17.9,45.6,20z"/>
	<path class="st0" d="M32.2,26.9c-1.6-1.7-3.4-3.3-5-5.1c-1-1.1-2.2-1.8-3.9-2.1c-0.5,0.1-0.9,0.3-1.3,0.4c-3.2,1.3-4,4.9-1.6,7.3
		c1.8,1.8,3.6,3.6,5.4,5.4c1.5,1.5,4.1,1.7,5.8,0.5C33.8,31.9,34.1,29,32.2,26.9z"/>
	<path class="st0" d="M80.4,22.5c-0.8-1.7-2.3-2.4-4.1-2.3c-0.8,0-1.6-0.1-2.2,0.5c-2.4,2.3-4.9,4.4-6.9,7.1c-1.3,1.7-0.8,4.2,1,5.6
		c2,1.5,3.8,1.6,5.5,0c2-1.9,4-3.9,5.9-5.9C80.9,26,81.3,24.3,80.4,22.5z"/>
</g>
</svg>
